<svg xmlns="http://www.w3.org/2000/svg" xmlns:xlink="http://www.w3.org/1999/xlink" width="1080" zoomAndPan="magnify" viewBox="0 0 810 809.999993" height="1080" preserveAspectRatio="xMidYMid meet" version="1.0"><defs><g/></defs><rect x="-81" width="972" fill="#ffffff" y="-80.999999" height="971.999992" fill-opacity="1"/><rect x="-81" width="972" fill="#fff8f0" y="-80.999999" height="971.999992" fill-opacity="1"/><g fill="#3c2a14" fill-opacity="1"><g transform="translate(152.042188, 340.672222)"><g><path d="M 83.46875 -39.875 L 109.484375 -21.296875 C 104.535156 -13.765625 97.867188 -7.832031 89.484375 -3.5 C 81.097656 0.832031 71.804688 3 61.609375 3 C 53.023438 3 45.160156 1.546875 38.015625 -1.359375 C 30.867188 -4.265625 24.695312 -8.3125 19.5 -13.5 C 14.3125 -18.695312 10.285156 -24.867188 7.421875 -32.015625 C 4.566406 -39.160156 3.140625 -46.925781 3.140625 -55.3125 C 3.140625 -63.507812 4.59375 -71.15625 7.5 -78.25 C 10.40625 -85.351562 14.476562 -91.546875 19.71875 -96.828125 C 24.96875 -102.117188 31.164062 -106.242188 38.3125 -109.203125 C 45.457031 -112.160156 53.222656 -113.640625 61.609375 -113.640625 C 71.421875 -113.640625 80.472656 -111.734375 88.765625 -107.921875 C 97.054688 -104.109375 103.820312 -98.675781 109.0625 -91.625 L 84.46875 -72.46875 C 82.09375 -76.1875 78.785156 -78.925781 74.546875 -80.6875 C 70.304688 -82.445312 65.992188 -83.328125 61.609375 -83.328125 C 56.554688 -83.328125 51.976562 -82.132812 47.875 -79.75 C 43.78125 -77.375 40.519531 -74.085938 38.09375 -69.890625 C 35.664062 -65.703125 34.453125 -60.84375 34.453125 -55.3125 C 34.453125 -50.363281 35.664062 -45.765625 38.09375 -41.515625 C 40.519531 -37.273438 43.804688 -33.867188 47.953125 -31.296875 C 52.097656 -28.722656 56.648438 -27.4375 61.609375 -27.4375 C 66.085938 -27.4375 70.253906 -28.582031 74.109375 -30.875 C 77.972656 -33.164062 81.09375 -36.164062 83.46875 -39.875 Z M 69.46875 10.859375 C 62.800781 10.859375 56.5625 9.953125 50.75 8.140625 C 44.9375 6.335938 39.644531 3.816406 34.875 0.578125 C 42.882812 4.191406 51.796875 6 61.609375 6 C 71.515625 6 80.734375 3.878906 89.265625 -0.359375 C 97.796875 -4.597656 104.96875 -10.484375 110.78125 -18.015625 L 117.359375 -13.4375 C 112.398438 -5.90625 105.726562 0.0234375 97.34375 4.359375 C 88.957031 8.691406 79.664062 10.859375 69.46875 10.859375 Z M 42.3125 -47.453125 C 42.3125 -44.398438 42.738281 -41.492188 43.59375 -38.734375 C 41.6875 -40.929688 40.1875 -43.457031 39.09375 -46.3125 C 38 -49.164062 37.453125 -52.164062 37.453125 -55.3125 C 37.453125 -60.269531 38.519531 -64.628906 40.65625 -68.390625 C 42.800781 -72.160156 45.707031 -75.09375 49.375 -77.1875 C 53.050781 -79.28125 57.128906 -80.328125 61.609375 -80.328125 C 64.367188 -80.328125 67.203125 -79.828125 70.109375 -78.828125 C 73.015625 -77.828125 75.707031 -76.328125 78.1875 -74.328125 C 75.132812 -75.085938 72.226562 -75.46875 69.46875 -75.46875 C 64.414062 -75.46875 59.835938 -74.273438 55.734375 -71.890625 C 51.640625 -69.515625 48.378906 -66.226562 45.953125 -62.03125 C 43.523438 -57.84375 42.3125 -52.984375 42.3125 -47.453125 Z M 92.34375 -64.609375 C 91.675781 -65.753906 90.835938 -66.800781 89.828125 -67.75 C 88.828125 -68.707031 87.804688 -69.566406 86.765625 -70.328125 L 111.640625 -89.765625 C 113.441406 -88.046875 115.203125 -86.046875 116.921875 -83.765625 Z M 92.34375 -64.609375 "/></g></g></g><g fill="#3c2a14" fill-opacity="1"><g transform="translate(266.820007, 340.672222)"><g><path d="M 6.140625 0 L 6.140625 -75.90625 L 32.734375 -75.90625 L 33.59375 -59.3125 C 33.6875 -59.3125 33.875 -59.929688 34.15625 -61.171875 C 34.445312 -62.410156 35.046875 -63.9375 35.953125 -65.75 C 36.859375 -67.5625 38.285156 -69.375 40.234375 -71.1875 C 42.191406 -73 44.90625 -74.519531 48.375 -75.75 C 51.851562 -76.988281 56.3125 -77.609375 61.75 -77.609375 L 61.75 -53.03125 C 60.507812 -53.03125 58.769531 -52.957031 56.53125 -52.8125 C 54.289062 -52.664062 51.90625 -52.234375 49.375 -51.515625 C 46.851562 -50.804688 44.445312 -49.617188 42.15625 -47.953125 C 39.875 -46.285156 38.019531 -43.972656 36.59375 -41.015625 C 35.164062 -38.066406 34.453125 -34.257812 34.453125 -29.59375 L 34.453125 0 Z M 14.015625 7.859375 L 14.015625 3 L 37.453125 3 L 37.453125 -29.59375 C 37.453125 -33.6875 38.164062 -37.019531 39.59375 -39.59375 C 41.019531 -42.164062 42.875 -44.164062 45.15625 -45.59375 C 47.445312 -47.019531 49.851562 -48.039062 52.375 -48.65625 C 54.90625 -49.28125 57.289062 -49.664062 59.53125 -49.8125 C 61.769531 -49.957031 63.507812 -50.03125 64.75 -50.03125 L 64.75 -69.46875 C 65.507812 -69.5625 66.296875 -69.628906 67.109375 -69.671875 C 67.921875 -69.722656 68.753906 -69.75 69.609375 -69.75 L 69.609375 -45.171875 C 68.367188 -45.171875 66.628906 -45.097656 64.390625 -44.953125 C 62.148438 -44.804688 59.765625 -44.375 57.234375 -43.65625 C 54.710938 -42.945312 52.304688 -41.757812 50.015625 -40.09375 C 47.734375 -38.425781 45.878906 -36.113281 44.453125 -33.15625 C 43.023438 -30.207031 42.3125 -26.394531 42.3125 -21.71875 L 42.3125 7.859375 Z M 14.015625 7.859375 "/></g></g></g><g fill="#3c2a14" fill-opacity="1"><g transform="translate(332.999506, 340.672222)"><g><path d="M 60.3125 -28.296875 L 80.609375 -16.4375 C 80.609375 -16.4375 79.988281 -15.53125 78.75 -13.71875 C 77.519531 -11.90625 75.5 -9.785156 72.6875 -7.359375 C 69.875 -4.929688 66.128906 -2.8125 61.453125 -1 C 56.785156 0.8125 51.023438 1.71875 44.171875 1.71875 C 35.691406 1.71875 28.425781 0.00390625 22.375 -3.421875 C 16.320312 -6.859375 11.695312 -11.550781 8.5 -17.5 C 5.3125 -23.457031 3.71875 -30.25 3.71875 -37.875 C 3.71875 -45.5 5.382812 -52.3125 8.71875 -58.3125 C 12.050781 -64.320312 16.742188 -69.039062 22.796875 -72.46875 C 28.847656 -75.894531 35.925781 -77.609375 44.03125 -77.609375 C 52.03125 -77.609375 58.957031 -75.941406 64.8125 -72.609375 C 70.675781 -69.273438 75.226562 -64.582031 78.46875 -58.53125 C 81.707031 -52.476562 83.328125 -45.257812 83.328125 -36.875 C 83.328125 -36.113281 83.207031 -35.328125 82.96875 -34.515625 C 82.738281 -33.703125 82.625 -33.296875 82.625 -33.296875 L 31.015625 -33.296875 C 31.015625 -32.066406 31.488281 -30.445312 32.4375 -28.4375 C 33.394531 -26.4375 34.96875 -24.675781 37.15625 -23.15625 C 39.351562 -21.632812 42.3125 -20.875 46.03125 -20.875 C 49.457031 -20.875 52.21875 -21.488281 54.3125 -22.71875 C 56.40625 -23.957031 57.925781 -25.195312 58.875 -26.4375 C 59.832031 -27.675781 60.3125 -28.296875 60.3125 -28.296875 Z M 52.03125 9.578125 C 46.59375 9.578125 41.660156 8.859375 37.234375 7.421875 C 32.804688 5.992188 28.921875 3.992188 25.578125 1.421875 C 31.109375 3.617188 37.304688 4.71875 44.171875 4.71875 C 51.023438 4.71875 56.90625 3.71875 61.8125 1.71875 C 66.726562 -0.28125 70.78125 -2.640625 73.96875 -5.359375 C 77.164062 -8.078125 79.617188 -10.53125 81.328125 -12.71875 L 88.484375 -8.578125 C 88.484375 -8.578125 87.863281 -7.671875 86.625 -5.859375 C 85.382812 -4.046875 83.359375 -1.925781 80.546875 0.5 C 77.734375 2.925781 73.992188 5.046875 69.328125 6.859375 C 64.660156 8.671875 58.894531 9.578125 52.03125 9.578125 Z M 44.171875 -56.453125 C 41.023438 -56.453125 38.5 -55.832031 36.59375 -54.59375 C 34.6875 -53.363281 33.28125 -51.816406 32.375 -49.953125 C 31.46875 -48.097656 31.015625 -46.21875 31.015625 -44.3125 L 56.03125 -44.3125 C 56.03125 -46.21875 55.648438 -48.097656 54.890625 -49.953125 C 54.128906 -51.816406 52.890625 -53.363281 51.171875 -54.59375 C 49.453125 -55.832031 47.117188 -56.453125 44.171875 -56.453125 Z M 84.765625 -30.296875 C 84.765625 -30.296875 85.023438 -31.128906 85.546875 -32.796875 C 86.066406 -34.472656 86.328125 -35.832031 86.328125 -36.875 C 86.328125 -43.738281 85.234375 -50.03125 83.046875 -55.75 C 85.617188 -52.3125 87.617188 -48.351562 89.046875 -43.875 C 90.472656 -39.394531 91.1875 -34.441406 91.1875 -29.015625 C 91.1875 -28.253906 91.066406 -27.46875 90.828125 -26.65625 C 90.597656 -25.84375 90.484375 -25.4375 90.484375 -25.4375 L 71.046875 -25.4375 L 62.890625 -30.296875 Z M 57.75 -30.296875 C 57.175781 -29.535156 56.410156 -28.703125 55.453125 -27.796875 C 54.503906 -26.890625 53.410156 -26.101562 52.171875 -25.4375 L 39.171875 -25.4375 C 38.023438 -26.101562 37.09375 -26.863281 36.375 -27.71875 C 35.664062 -28.582031 35.117188 -29.441406 34.734375 -30.296875 Z M 52.03125 -48.59375 C 50.789062 -48.59375 49.625 -48.472656 48.53125 -48.234375 C 47.4375 -48.003906 46.457031 -47.695312 45.59375 -47.3125 L 34.453125 -47.3125 C 34.921875 -48.9375 35.941406 -50.363281 37.515625 -51.59375 C 39.085938 -52.832031 41.304688 -53.453125 44.171875 -53.453125 C 46.359375 -53.453125 48.09375 -52.972656 49.375 -52.015625 C 50.664062 -51.066406 51.550781 -49.925781 52.03125 -48.59375 Z M 52.03125 -48.59375 "/></g></g></g><g fill="#3c2a14" fill-opacity="1"><g transform="translate(420.476506, 340.672222)"><g><path d="M 42.734375 -77.609375 C 50.835938 -77.609375 57.960938 -76.488281 64.109375 -74.25 C 70.253906 -72.007812 75.066406 -68.175781 78.546875 -62.75 C 82.023438 -57.320312 83.765625 -49.796875 83.765625 -40.171875 L 83.765625 0 L 55.3125 0 L 54.453125 -6.140625 C 54.453125 -6.140625 53.570312 -5.492188 51.8125 -4.203125 C 50.050781 -2.921875 47.503906 -1.613281 44.171875 -0.28125 C 40.835938 1.050781 36.691406 1.71875 31.734375 1.71875 C 26.203125 1.71875 21.222656 0.644531 16.796875 -1.5 C 12.367188 -3.644531 8.890625 -6.644531 6.359375 -10.5 C 3.835938 -14.363281 2.578125 -18.914062 2.578125 -24.15625 C 2.578125 -29.875 4.003906 -34.640625 6.859375 -38.453125 C 9.722656 -42.265625 13.554688 -45.144531 18.359375 -47.09375 C 23.171875 -49.050781 28.535156 -50.03125 34.453125 -50.03125 C 38.640625 -50.03125 42.28125 -49.53125 45.375 -48.53125 C 48.476562 -47.53125 50.910156 -46.53125 52.671875 -45.53125 C 54.429688 -44.53125 55.3125 -44.03125 55.3125 -44.03125 L 55.3125 -48.03125 C 55.3125 -51.175781 53.691406 -53.675781 50.453125 -55.53125 C 47.210938 -57.382812 43.066406 -58.3125 38.015625 -58.3125 C 33.347656 -58.3125 29.25 -57.882812 25.71875 -57.03125 C 22.195312 -56.175781 19.457031 -55.296875 17.5 -54.390625 C 15.550781 -53.484375 14.578125 -53.03125 14.578125 -53.03125 L 7.296875 -70.890625 C 7.296875 -70.890625 8.769531 -71.460938 11.71875 -72.609375 C 14.675781 -73.753906 18.820312 -74.875 24.15625 -75.96875 C 29.488281 -77.0625 35.679688 -77.609375 42.734375 -77.609375 Z M 63.171875 7.859375 L 62.46875 3 L 86.765625 3 L 86.765625 -40.171875 C 86.765625 -47.023438 85.90625 -52.882812 84.1875 -57.75 C 86.570312 -54.882812 88.40625 -51.351562 89.6875 -47.15625 C 90.976562 -42.96875 91.625 -38.015625 91.625 -32.296875 L 91.625 7.859375 Z M 55.3125 -24.15625 C 55.3125 -27.207031 54.144531 -29.632812 51.8125 -31.4375 C 49.476562 -33.25 46.597656 -34.15625 43.171875 -34.15625 C 39.359375 -34.15625 36.304688 -33.25 34.015625 -31.4375 C 31.734375 -29.632812 30.59375 -27.207031 30.59375 -24.15625 C 30.59375 -21.195312 31.878906 -19.003906 34.453125 -17.578125 C 37.023438 -16.148438 39.929688 -15.4375 43.171875 -15.4375 C 46.316406 -15.4375 49.125 -16.175781 51.59375 -17.65625 C 54.070312 -19.132812 55.3125 -21.300781 55.3125 -24.15625 Z M 39.59375 9.578125 C 35.5 9.578125 31.6875 8.957031 28.15625 7.71875 C 24.632812 6.476562 21.539062 4.765625 18.875 2.578125 C 22.78125 4.003906 27.066406 4.71875 31.734375 4.71875 C 36.878906 4.71875 41.070312 4.117188 44.3125 2.921875 C 47.550781 1.734375 50.125 0.519531 52.03125 -0.71875 L 52.3125 3 L 60.75 3 C 59.320312 4.050781 56.84375 5.410156 53.3125 7.078125 C 49.789062 8.742188 45.21875 9.578125 39.59375 9.578125 Z M 51.03125 -26.296875 C 47.789062 -26.296875 45.097656 -25.628906 42.953125 -24.296875 C 40.804688 -22.960938 39.398438 -21.203125 38.734375 -19.015625 C 37.210938 -19.390625 35.972656 -19.984375 35.015625 -20.796875 C 34.066406 -21.609375 33.59375 -22.726562 33.59375 -24.15625 C 33.59375 -26.34375 34.445312 -28.054688 36.15625 -29.296875 C 37.875 -30.535156 40.210938 -31.15625 43.171875 -31.15625 C 45.265625 -31.15625 47.097656 -30.726562 48.671875 -29.875 C 50.242188 -29.019531 51.316406 -27.828125 51.890625 -26.296875 Z M 51.890625 -49.890625 C 51.503906 -49.984375 51.097656 -50.050781 50.671875 -50.09375 C 50.242188 -50.144531 49.789062 -50.171875 49.3125 -50.171875 C 47.40625 -50.929688 45.1875 -51.597656 42.65625 -52.171875 C 40.132812 -52.742188 37.398438 -53.03125 34.453125 -53.03125 C 29.304688 -53.03125 24.492188 -52.316406 20.015625 -50.890625 L 19.71875 -51.75 C 21.914062 -52.601562 24.609375 -53.410156 27.796875 -54.171875 C 30.992188 -54.929688 34.398438 -55.3125 38.015625 -55.3125 C 41.546875 -55.3125 44.550781 -54.832031 47.03125 -53.875 C 49.507812 -52.925781 51.128906 -51.597656 51.890625 -49.890625 Z M 51.890625 -49.890625 "/></g></g></g><g fill="#3c2a14" fill-opacity="1"><g transform="translate(511.241007, 340.672222)"><g><path d="M 53.3125 0 L 35.015625 0 C 30.160156 0 26.207031 -0.617188 23.15625 -1.859375 C 20.101562 -3.097656 17.71875 -4.617188 16 -6.421875 C 14.289062 -8.234375 13.054688 -10.046875 12.296875 -11.859375 C 11.535156 -13.671875 11.082031 -15.195312 10.9375 -16.4375 C 10.789062 -17.675781 10.71875 -18.296875 10.71875 -18.296875 L 10.71875 -53.171875 L 4 -53.171875 L 4 -75.90625 L 10.71875 -75.90625 L 10.71875 -99.625 L 39.3125 -99.625 L 39.3125 -75.90625 L 53.3125 -75.90625 L 53.3125 -53.171875 L 39.3125 -53.171875 L 39.3125 -30.296875 C 39.3125 -28.296875 39.691406 -26.703125 40.453125 -25.515625 C 41.210938 -24.328125 42.785156 -23.734375 45.171875 -23.734375 L 53.3125 -23.734375 Z M 47.171875 -45.3125 L 47.171875 -26.734375 L 45.171875 -26.734375 C 43.929688 -26.734375 43.144531 -27.066406 42.8125 -27.734375 C 42.476562 -28.398438 42.3125 -29.253906 42.3125 -30.296875 L 42.3125 -50.171875 L 56.3125 -50.171875 L 56.3125 -68.03125 L 61.171875 -68.03125 L 61.171875 -45.3125 Z M 56.3125 3 L 56.3125 -15.859375 L 61.171875 -15.859375 L 61.171875 7.859375 L 42.875 7.859375 C 38.113281 7.859375 34.207031 7.238281 31.15625 6 C 28.113281 4.757812 25.6875 3.285156 23.875 1.578125 C 25.488281 1.953125 27.203125 2.28125 29.015625 2.5625 C 30.828125 2.851562 32.828125 3 35.015625 3 Z M 47.171875 -91.765625 L 47.171875 -78.90625 L 42.3125 -78.90625 L 42.3125 -91.765625 Z M 47.171875 -91.765625 "/></g></g></g><g fill="#3c2a14" fill-opacity="1"><g transform="translate(570.416607, 340.672222)"><g><path d="M 60.3125 -28.296875 L 80.609375 -16.4375 C 80.609375 -16.4375 79.988281 -15.53125 78.75 -13.71875 C 77.519531 -11.90625 75.5 -9.785156 72.6875 -7.359375 C 69.875 -4.929688 66.128906 -2.8125 61.453125 -1 C 56.785156 0.8125 51.023438 1.71875 44.171875 1.71875 C 35.691406 1.71875 28.425781 0.00390625 22.375 -3.421875 C 16.320312 -6.859375 11.695312 -11.550781 8.5 -17.5 C 5.3125 -23.457031 3.71875 -30.25 3.71875 -37.875 C 3.71875 -45.5 5.382812 -52.3125 8.71875 -58.3125 C 12.050781 -64.320312 16.742188 -69.039062 22.796875 -72.46875 C 28.847656 -75.894531 35.925781 -77.609375 44.03125 -77.609375 C 52.03125 -77.609375 58.957031 -75.941406 64.8125 -72.609375 C 70.675781 -69.273438 75.226562 -64.582031 78.46875 -58.53125 C 81.707031 -52.476562 83.328125 -45.257812 83.328125 -36.875 C 83.328125 -36.113281 83.207031 -35.328125 82.96875 -34.515625 C 82.738281 -33.703125 82.625 -33.296875 82.625 -33.296875 L 31.015625 -33.296875 C 31.015625 -32.066406 31.488281 -30.445312 32.4375 -28.4375 C 33.394531 -26.4375 34.96875 -24.675781 37.15625 -23.15625 C 39.351562 -21.632812 42.3125 -20.875 46.03125 -20.875 C 49.457031 -20.875 52.21875 -21.488281 54.3125 -22.71875 C 56.40625 -23.957031 57.925781 -25.195312 58.875 -26.4375 C 59.832031 -27.675781 60.3125 -28.296875 60.3125 -28.296875 Z M 52.03125 9.578125 C 46.59375 9.578125 41.660156 8.859375 37.234375 7.421875 C 32.804688 5.992188 28.921875 3.992188 25.578125 1.421875 C 31.109375 3.617188 37.304688 4.71875 44.171875 4.71875 C 51.023438 4.71875 56.90625 3.71875 61.8125 1.71875 C 66.726562 -0.28125 70.78125 -2.640625 73.96875 -5.359375 C 77.164062 -8.078125 79.617188 -10.53125 81.328125 -12.71875 L 88.484375 -8.578125 C 88.484375 -8.578125 87.863281 -7.671875 86.625 -5.859375 C 85.382812 -4.046875 83.359375 -1.925781 80.546875 0.5 C 77.734375 2.925781 73.992188 5.046875 69.328125 6.859375 C 64.660156 8.671875 58.894531 9.578125 52.03125 9.578125 Z M 44.171875 -56.453125 C 41.023438 -56.453125 38.5 -55.832031 36.59375 -54.59375 C 34.6875 -53.363281 33.28125 -51.816406 32.375 -49.953125 C 31.46875 -48.097656 31.015625 -46.21875 31.015625 -44.3125 L 56.03125 -44.3125 C 56.03125 -46.21875 55.648438 -48.097656 54.890625 -49.953125 C 54.128906 -51.816406 52.890625 -53.363281 51.171875 -54.59375 C 49.453125 -55.832031 47.117188 -56.453125 44.171875 -56.453125 Z M 84.765625 -30.296875 C 84.765625 -30.296875 85.023438 -31.128906 85.546875 -32.796875 C 86.066406 -34.472656 86.328125 -35.832031 86.328125 -36.875 C 86.328125 -43.738281 85.234375 -50.03125 83.046875 -55.75 C 85.617188 -52.3125 87.617188 -48.351562 89.046875 -43.875 C 90.472656 -39.394531 91.1875 -34.441406 91.1875 -29.015625 C 91.1875 -28.253906 91.066406 -27.46875 90.828125 -26.65625 C 90.597656 -25.84375 90.484375 -25.4375 90.484375 -25.4375 L 71.046875 -25.4375 L 62.890625 -30.296875 Z M 57.75 -30.296875 C 57.175781 -29.535156 56.410156 -28.703125 55.453125 -27.796875 C 54.503906 -26.890625 53.410156 -26.101562 52.171875 -25.4375 L 39.171875 -25.4375 C 38.023438 -26.101562 37.09375 -26.863281 36.375 -27.71875 C 35.664062 -28.582031 35.117188 -29.441406 34.734375 -30.296875 Z M 52.03125 -48.59375 C 50.789062 -48.59375 49.625 -48.472656 48.53125 -48.234375 C 47.4375 -48.003906 46.457031 -47.695312 45.59375 -47.3125 L 34.453125 -47.3125 C 34.921875 -48.9375 35.941406 -50.363281 37.515625 -51.59375 C 39.085938 -52.832031 41.304688 -53.453125 44.171875 -53.453125 C 46.359375 -53.453125 48.09375 -52.972656 49.375 -52.015625 C 50.664062 -51.066406 51.550781 -49.925781 52.03125 -48.59375 Z M 52.03125 -48.59375 "/></g></g></g><g fill="#3c2a14" fill-opacity="1"><g transform="translate(220.097209, 539.015963)"><g><path d="M 1.28125 -18.4375 L 20.015625 -36.015625 C 20.015625 -36.015625 20.394531 -35.441406 21.15625 -34.296875 C 21.914062 -33.160156 23.007812 -31.851562 24.4375 -30.375 C 25.875 -28.894531 27.640625 -27.582031 29.734375 -26.4375 C 31.828125 -25.300781 34.160156 -24.734375 36.734375 -24.734375 C 41.785156 -24.734375 45.332031 -26.445312 47.375 -29.875 C 49.425781 -33.300781 50.453125 -37.6875 50.453125 -43.03125 L 50.453125 -110.78125 L 81.90625 -110.78125 L 81.90625 -45.453125 C 81.90625 -35.734375 80.351562 -27.347656 77.25 -20.296875 C 74.15625 -13.242188 69.296875 -7.8125 62.671875 -4 C 56.054688 -0.1875 47.457031 1.71875 36.875 1.71875 C 31.632812 1.71875 27.035156 1.050781 23.078125 -0.28125 C 19.128906 -1.613281 15.769531 -3.28125 13 -5.28125 C 10.238281 -7.289062 8 -9.316406 6.28125 -11.359375 C 4.570312 -13.410156 3.3125 -15.101562 2.5 -16.4375 C 1.6875 -17.769531 1.28125 -18.4375 1.28125 -18.4375 Z M 44.734375 9.578125 C 38.828125 9.578125 33.753906 8.691406 29.515625 6.921875 C 25.273438 5.160156 21.726562 3.1875 18.875 1 C 21.34375 2.050781 24.078125 2.929688 27.078125 3.640625 C 30.085938 4.359375 33.351562 4.71875 36.875 4.71875 C 48.125 4.71875 57.273438 2.691406 64.328125 -1.359375 C 71.378906 -5.410156 76.570312 -11.195312 79.90625 -18.71875 C 83.238281 -26.25 84.90625 -35.160156 84.90625 -45.453125 L 84.90625 -102.921875 L 89.765625 -102.921875 L 89.765625 -37.59375 C 89.765625 -27.875 88.210938 -19.488281 85.109375 -12.4375 C 82.015625 -5.382812 77.15625 0.046875 70.53125 3.859375 C 63.914062 7.671875 55.316406 9.578125 44.734375 9.578125 Z M 44.734375 9.578125 "/></g></g></g><g fill="#3c2a14" fill-opacity="1"><g transform="translate(309.289449, 539.015963)"><g><path d="M 42.734375 -77.609375 C 50.835938 -77.609375 57.960938 -76.488281 64.109375 -74.25 C 70.253906 -72.007812 75.066406 -68.175781 78.546875 -62.75 C 82.023438 -57.320312 83.765625 -49.796875 83.765625 -40.171875 L 83.765625 0 L 55.3125 0 L 54.453125 -6.140625 C 54.453125 -6.140625 53.570312 -5.492188 51.8125 -4.203125 C 50.050781 -2.921875 47.503906 -1.613281 44.171875 -0.28125 C 40.835938 1.050781 36.691406 1.71875 31.734375 1.71875 C 26.203125 1.71875 21.222656 0.644531 16.796875 -1.5 C 12.367188 -3.644531 8.890625 -6.644531 6.359375 -10.5 C 3.835938 -14.363281 2.578125 -18.914062 2.578125 -24.15625 C 2.578125 -29.875 4.003906 -34.640625 6.859375 -38.453125 C 9.722656 -42.265625 13.554688 -45.144531 18.359375 -47.09375 C 23.171875 -49.050781 28.535156 -50.03125 34.453125 -50.03125 C 38.640625 -50.03125 42.28125 -49.53125 45.375 -48.53125 C 48.476562 -47.53125 50.910156 -46.53125 52.671875 -45.53125 C 54.429688 -44.53125 55.3125 -44.03125 55.3125 -44.03125 L 55.3125 -48.03125 C 55.3125 -51.175781 53.691406 -53.675781 50.453125 -55.53125 C 47.210938 -57.382812 43.066406 -58.3125 38.015625 -58.3125 C 33.347656 -58.3125 29.25 -57.882812 25.71875 -57.03125 C 22.195312 -56.175781 19.457031 -55.296875 17.5 -54.390625 C 15.550781 -53.484375 14.578125 -53.03125 14.578125 -53.03125 L 7.296875 -70.890625 C 7.296875 -70.890625 8.769531 -71.460938 11.71875 -72.609375 C 14.675781 -73.753906 18.820312 -74.875 24.15625 -75.96875 C 29.488281 -77.0625 35.679688 -77.609375 42.734375 -77.609375 Z M 63.171875 7.859375 L 62.46875 3 L 86.765625 3 L 86.765625 -40.171875 C 86.765625 -47.023438 85.90625 -52.882812 84.1875 -57.75 C 86.570312 -54.882812 88.40625 -51.351562 89.6875 -47.15625 C 90.976562 -42.96875 91.625 -38.015625 91.625 -32.296875 L 91.625 7.859375 Z M 55.3125 -24.15625 C 55.3125 -27.207031 54.144531 -29.632812 51.8125 -31.4375 C 49.476562 -33.25 46.597656 -34.15625 43.171875 -34.15625 C 39.359375 -34.15625 36.304688 -33.25 34.015625 -31.4375 C 31.734375 -29.632812 30.59375 -27.207031 30.59375 -24.15625 C 30.59375 -21.195312 31.878906 -19.003906 34.453125 -17.578125 C 37.023438 -16.148438 39.929688 -15.4375 43.171875 -15.4375 C 46.316406 -15.4375 49.125 -16.175781 51.59375 -17.65625 C 54.070312 -19.132812 55.3125 -21.300781 55.3125 -24.15625 Z M 39.59375 9.578125 C 35.5 9.578125 31.6875 8.957031 28.15625 7.71875 C 24.632812 6.476562 21.539062 4.765625 18.875 2.578125 C 22.78125 4.003906 27.066406 4.71875 31.734375 4.71875 C 36.878906 4.71875 41.070312 4.117188 44.3125 2.921875 C 47.550781 1.734375 50.125 0.519531 52.03125 -0.71875 L 52.3125 3 L 60.75 3 C 59.320312 4.050781 56.84375 5.410156 53.3125 7.078125 C 49.789062 8.742188 45.21875 9.578125 39.59375 9.578125 Z M 51.03125 -26.296875 C 47.789062 -26.296875 45.097656 -25.628906 42.953125 -24.296875 C 40.804688 -22.960938 39.398438 -21.203125 38.734375 -19.015625 C 37.210938 -19.390625 35.972656 -19.984375 35.015625 -20.796875 C 34.066406 -21.609375 33.59375 -22.726562 33.59375 -24.15625 C 33.59375 -26.34375 34.445312 -28.054688 36.15625 -29.296875 C 37.875 -30.535156 40.210938 -31.15625 43.171875 -31.15625 C 45.265625 -31.15625 47.097656 -30.726562 48.671875 -29.875 C 50.242188 -29.019531 51.316406 -27.828125 51.890625 -26.296875 Z M 51.890625 -49.890625 C 51.503906 -49.984375 51.097656 -50.050781 50.671875 -50.09375 C 50.242188 -50.144531 49.789062 -50.171875 49.3125 -50.171875 C 47.40625 -50.929688 45.1875 -51.597656 42.65625 -52.171875 C 40.132812 -52.742188 37.398438 -53.03125 34.453125 -53.03125 C 29.304688 -53.03125 24.492188 -52.316406 20.015625 -50.890625 L 19.71875 -51.75 C 21.914062 -52.601562 24.609375 -53.410156 27.796875 -54.171875 C 30.992188 -54.929688 34.398438 -55.3125 38.015625 -55.3125 C 41.546875 -55.3125 44.550781 -54.832031 47.03125 -53.875 C 49.507812 -52.925781 51.128906 -51.597656 51.890625 -49.890625 Z M 51.890625 -49.890625 "/></g></g></g><g fill="#3c2a14" fill-opacity="1"><g transform="translate(400.053949, 539.015963)"><g><path d="M 6.140625 0 L 6.140625 -75.90625 L 32.734375 -75.90625 L 33.59375 -59.3125 C 33.6875 -59.3125 33.875 -59.929688 34.15625 -61.171875 C 34.445312 -62.410156 35.046875 -63.9375 35.953125 -65.75 C 36.859375 -67.5625 38.285156 -69.375 40.234375 -71.1875 C 42.191406 -73 44.90625 -74.519531 48.375 -75.75 C 51.851562 -76.988281 56.3125 -77.609375 61.75 -77.609375 L 61.75 -53.03125 C 60.507812 -53.03125 58.769531 -52.957031 56.53125 -52.8125 C 54.289062 -52.664062 51.90625 -52.234375 49.375 -51.515625 C 46.851562 -50.804688 44.445312 -49.617188 42.15625 -47.953125 C 39.875 -46.285156 38.019531 -43.972656 36.59375 -41.015625 C 35.164062 -38.066406 34.453125 -34.257812 34.453125 -29.59375 L 34.453125 0 Z M 14.015625 7.859375 L 14.015625 3 L 37.453125 3 L 37.453125 -29.59375 C 37.453125 -33.6875 38.164062 -37.019531 39.59375 -39.59375 C 41.019531 -42.164062 42.875 -44.164062 45.15625 -45.59375 C 47.445312 -47.019531 49.851562 -48.039062 52.375 -48.65625 C 54.90625 -49.28125 57.289062 -49.664062 59.53125 -49.8125 C 61.769531 -49.957031 63.507812 -50.03125 64.75 -50.03125 L 64.75 -69.46875 C 65.507812 -69.5625 66.296875 -69.628906 67.109375 -69.671875 C 67.921875 -69.722656 68.753906 -69.75 69.609375 -69.75 L 69.609375 -45.171875 C 68.367188 -45.171875 66.628906 -45.097656 64.390625 -44.953125 C 62.148438 -44.804688 59.765625 -44.375 57.234375 -43.65625 C 54.710938 -42.945312 52.304688 -41.757812 50.015625 -40.09375 C 47.734375 -38.425781 45.878906 -36.113281 44.453125 -33.15625 C 43.023438 -30.207031 42.3125 -26.394531 42.3125 -21.71875 L 42.3125 7.859375 Z M 14.015625 7.859375 "/></g></g></g><g fill="#3c2a14" fill-opacity="1"><g transform="translate(466.233448, 539.015963)"><g/></g></g><g fill="#3c2a14" fill-opacity="1"><g transform="translate(507.684968, 539.015963)"><g><path d="M 27.875 -77.609375 L 0.578125 -77.609375 C 0.578125 -81.804688 1.335938 -86.023438 2.859375 -90.265625 C 4.378906 -94.503906 6.710938 -98.382812 9.859375 -101.90625 C 13.003906 -105.4375 17.003906 -108.273438 21.859375 -110.421875 C 26.722656 -112.566406 32.492188 -113.640625 39.171875 -113.640625 C 46.597656 -113.640625 53.289062 -112.207031 59.25 -109.34375 C 65.207031 -106.488281 69.898438 -102.367188 73.328125 -96.984375 C 76.753906 -91.597656 78.46875 -85.140625 78.46875 -77.609375 C 78.46875 -72.085938 77.585938 -67.375 75.828125 -63.46875 C 74.066406 -59.5625 71.800781 -56.34375 69.03125 -53.8125 C 66.269531 -51.289062 63.316406 -49.382812 60.171875 -48.09375 C 57.023438 -46.8125 54.070312 -45.976562 51.3125 -45.59375 L 48.3125 -38.015625 L 23.875 -38.015625 L 23.875 -63.171875 L 26.875 -65.75 C 33.351562 -65.75 38.757812 -66.703125 43.09375 -68.609375 C 47.425781 -70.515625 49.59375 -73.800781 49.59375 -78.46875 C 49.59375 -81.519531 48.640625 -84.117188 46.734375 -86.265625 C 44.828125 -88.410156 42.207031 -89.484375 38.875 -89.484375 C 36.207031 -89.484375 34.085938 -88.765625 32.515625 -87.328125 C 30.941406 -85.898438 29.796875 -84.253906 29.078125 -82.390625 C 28.367188 -80.535156 27.96875 -78.941406 27.875 -77.609375 Z M 36.59375 4.859375 C 33.632812 4.859375 30.914062 4.117188 28.4375 2.640625 C 25.96875 1.160156 23.992188 -0.8125 22.515625 -3.28125 C 21.035156 -5.757812 20.296875 -8.476562 20.296875 -11.4375 C 20.296875 -14.488281 21.035156 -17.226562 22.515625 -19.65625 C 23.992188 -22.082031 25.96875 -24.035156 28.4375 -25.515625 C 30.914062 -26.992188 33.632812 -27.734375 36.59375 -27.734375 C 41.070312 -27.734375 44.882812 -26.132812 48.03125 -22.9375 C 51.175781 -19.75 52.75 -15.914062 52.75 -11.4375 C 52.75 -6.957031 51.175781 -3.125 48.03125 0.0625 C 44.882812 3.257812 41.070312 4.859375 36.59375 4.859375 Z M 56.171875 -30.15625 L 41.171875 -30.15625 C 40.503906 -30.351562 39.765625 -30.5 38.953125 -30.59375 C 38.140625 -30.6875 37.351562 -30.734375 36.59375 -30.734375 C 35.738281 -30.734375 34.90625 -30.6875 34.09375 -30.59375 C 33.28125 -30.5 32.492188 -30.351562 31.734375 -30.15625 L 31.734375 -35.015625 L 50.3125 -35.015625 C 50.789062 -36.066406 51.289062 -37.328125 51.8125 -38.796875 C 52.332031 -40.273438 52.832031 -41.632812 53.3125 -42.875 C 56.269531 -43.445312 59.390625 -44.519531 62.671875 -46.09375 C 65.960938 -47.664062 69.035156 -49.8125 71.890625 -52.53125 C 74.753906 -55.25 77.066406 -58.675781 78.828125 -62.8125 C 80.585938 -66.957031 81.46875 -71.890625 81.46875 -77.609375 C 81.46875 -82.859375 80.660156 -87.671875 79.046875 -92.046875 C 81.328125 -89.097656 83.109375 -85.765625 84.390625 -82.046875 C 85.679688 -78.328125 86.328125 -74.226562 86.328125 -69.75 C 86.328125 -64.226562 85.445312 -59.515625 83.6875 -55.609375 C 81.925781 -51.703125 79.660156 -48.484375 76.890625 -45.953125 C 74.128906 -43.429688 71.175781 -41.523438 68.03125 -40.234375 C 64.894531 -38.953125 61.941406 -38.117188 59.171875 -37.734375 Z M 30.734375 -74.609375 C 30.828125 -75.941406 31.132812 -77.535156 31.65625 -79.390625 C 32.1875 -81.253906 33.019531 -82.898438 34.15625 -84.328125 C 35.300781 -85.765625 36.875 -86.484375 38.875 -86.484375 C 40.6875 -86.484375 42.210938 -86.03125 43.453125 -85.125 C 44.691406 -84.21875 45.550781 -83.050781 46.03125 -81.625 C 43.550781 -81.519531 41.570312 -80.753906 40.09375 -79.328125 C 38.613281 -77.898438 37.539062 -76.28125 36.875 -74.46875 C 36.207031 -72.65625 35.828125 -71.082031 35.734375 -69.75 L 8.4375 -69.75 L 8.4375 -74.609375 Z M 36.59375 7.859375 C 40.21875 7.859375 43.457031 7 46.3125 5.28125 C 49.164062 3.570312 51.453125 1.242188 53.171875 -1.703125 C 54.890625 -4.660156 55.75 -7.90625 55.75 -11.4375 C 55.75 -12.957031 55.601562 -14.335938 55.3125 -15.578125 C 58.84375 -12.335938 60.609375 -8.335938 60.609375 -3.578125 C 60.609375 0.898438 59.035156 4.734375 55.890625 7.921875 C 52.742188 11.117188 48.929688 12.71875 44.453125 12.71875 C 42.066406 12.71875 39.847656 12.238281 37.796875 11.28125 C 35.753906 10.332031 33.972656 9.050781 32.453125 7.4375 C 33.785156 7.71875 35.164062 7.859375 36.59375 7.859375 Z M 36.59375 7.859375 "/></g></g></g></svg>