<svg xmlns="http://www.w3.org/2000/svg" xmlns:xlink="http://www.w3.org/1999/xlink" width="1080" zoomAndPan="magnify" viewBox="0 0 810 809.999993" height="1080" preserveAspectRatio="xMidYMid meet" version="1.0"><defs><g/></defs><rect x="-81" width="972" fill="#ffffff" y="-80.999999" height="971.999992" fill-opacity="1"/><rect x="-81" width="972" fill="#fff8f0" y="-80.999999" height="971.999992" fill-opacity="1"/><g fill="#3c2a14" fill-opacity="1"><g transform="translate(136.312618, 354.017125)"><g><path d="M 0.90625 -87.6875 L 29.90625 -87.6875 L 47.46875 -55.171875 L 65.8125 -87.6875 L 94.59375 -87.6875 L 59.703125 -33.984375 L 59.703125 0 L 34.78125 0 L 34.78125 -33.765625 Z M 65.9375 6.234375 L 41.015625 6.234375 L 41.015625 2.375 L 62.078125 2.375 L 62.078125 -33.3125 L 93.34375 -81.453125 L 100.828125 -81.453125 L 65.9375 -27.75 Z M 65.9375 6.234375 "/></g></g></g><g fill="#3c2a14" fill-opacity="1"><g transform="translate(216.403837, 354.017125)"><g><path d="M 35.90625 1.359375 C 29.1875 1.359375 23.375 -0.0546875 18.46875 -2.890625 C 13.5625 -5.722656 9.785156 -9.515625 7.140625 -14.265625 C 4.492188 -19.023438 3.171875 -24.273438 3.171875 -30.015625 C 3.171875 -35.835938 4.507812 -41.125 7.1875 -45.875 C 9.875 -50.632812 13.671875 -54.429688 18.578125 -57.265625 C 23.484375 -60.097656 29.257812 -61.515625 35.90625 -61.515625 C 42.550781 -61.515625 48.328125 -60.078125 53.234375 -57.203125 C 58.148438 -54.335938 61.96875 -50.523438 64.6875 -45.765625 C 67.40625 -41.003906 68.765625 -35.753906 68.765625 -30.015625 C 68.765625 -24.359375 67.441406 -19.148438 64.796875 -14.390625 C 62.148438 -9.628906 58.390625 -5.8125 53.515625 -2.9375 C 48.648438 -0.0703125 42.78125 1.359375 35.90625 1.359375 Z M 47.015625 -30.015625 C 47.015625 -32.960938 45.957031 -35.550781 43.84375 -37.78125 C 41.726562 -40.007812 39.082031 -41.125 35.90625 -41.125 C 32.882812 -41.125 30.296875 -40.023438 28.140625 -37.828125 C 25.992188 -35.640625 24.921875 -33.035156 24.921875 -30.015625 C 24.921875 -27.078125 25.992188 -24.507812 28.140625 -22.3125 C 30.296875 -20.125 32.882812 -19.03125 35.90625 -19.03125 C 39.007812 -19.03125 41.632812 -20.125 43.78125 -22.3125 C 45.9375 -24.507812 47.015625 -27.078125 47.015625 -30.015625 Z M 35.90625 3.734375 C 43.238281 3.734375 49.523438 2.1875 54.765625 -0.90625 C 60.015625 -4 64.054688 -8.113281 66.890625 -13.25 C 69.722656 -18.382812 71.140625 -23.972656 71.140625 -30.015625 C 71.140625 -34.628906 70.347656 -38.898438 68.765625 -42.828125 C 70.722656 -40.179688 72.25 -37.234375 73.34375 -33.984375 C 74.445312 -30.734375 75 -27.335938 75 -23.796875 C 75 -18.128906 73.675781 -12.914062 71.03125 -8.15625 C 68.382812 -3.394531 64.625 0.414062 59.75 3.28125 C 54.882812 6.15625 49.015625 7.59375 42.140625 7.59375 C 37.984375 7.59375 34.128906 7.003906 30.578125 5.828125 C 27.035156 4.660156 23.941406 3.054688 21.296875 1.015625 C 23.484375 1.847656 25.785156 2.507812 28.203125 3 C 30.617188 3.488281 33.1875 3.734375 35.90625 3.734375 Z M 31.15625 -23.796875 L 31.15625 -22.765625 C 30.019531 -23.597656 29.09375 -24.65625 28.375 -25.9375 C 27.65625 -27.226562 27.296875 -28.585938 27.296875 -30.015625 C 27.296875 -32.429688 28.144531 -34.488281 29.84375 -36.1875 C 31.550781 -37.894531 33.570312 -38.75 35.90625 -38.75 C 37.414062 -38.75 38.8125 -38.390625 40.09375 -37.671875 C 41.382812 -36.953125 42.40625 -35.988281 43.15625 -34.78125 C 42.9375 -34.851562 42.597656 -34.890625 42.140625 -34.890625 C 39.117188 -34.890625 36.53125 -33.796875 34.375 -31.609375 C 32.226562 -29.421875 31.15625 -26.816406 31.15625 -23.796875 Z M 31.15625 -23.796875 "/></g></g></g><g fill="#3c2a14" fill-opacity="1"><g transform="translate(288.679028, 354.017125)"><g><path d="M 4.3125 -17.109375 L 4.3125 -60.15625 L 27.421875 -60.15625 L 27.421875 -27.75 C 27.421875 -24.726562 27.796875 -22.253906 28.546875 -20.328125 C 29.304688 -18.410156 30.894531 -17.453125 33.3125 -17.453125 C 35.195312 -17.453125 36.703125 -18 37.828125 -19.09375 C 38.960938 -20.1875 39.773438 -21.523438 40.265625 -23.109375 C 40.765625 -24.691406 41.015625 -26.238281 41.015625 -27.75 L 41.015625 -60.15625 L 63.328125 -60.15625 L 63.328125 0 L 41.6875 0 L 41.015625 -7.25 C 40.109375 -6.195312 38.800781 -4.988281 37.09375 -3.625 C 35.394531 -2.269531 33.28125 -1.097656 30.75 -0.109375 C 28.226562 0.867188 25.191406 1.359375 21.640625 1.359375 C 15.671875 1.359375 11.289062 -0.335938 8.5 -3.734375 C 5.707031 -7.140625 4.3125 -11.597656 4.3125 -17.109375 Z M 47.921875 6.234375 L 47.578125 2.375 L 65.703125 2.375 L 65.703125 -53.921875 L 69.5625 -53.921875 L 69.5625 6.234375 Z M 33.640625 -19.828125 C 31.984375 -19.828125 30.925781 -20.5625 30.46875 -22.03125 C 30.019531 -23.507812 29.796875 -25.414062 29.796875 -27.75 L 29.796875 -53.921875 L 33.640625 -53.921875 Z M 27.875 7.59375 C 25.070312 7.59375 22.613281 7.175781 20.5 6.34375 C 18.382812 5.507812 16.613281 4.378906 15.1875 2.953125 C 17 3.472656 19.148438 3.734375 21.640625 3.734375 C 25.566406 3.734375 28.984375 3.128906 31.890625 1.921875 C 34.796875 0.710938 37.191406 -0.609375 39.078125 -2.046875 L 39.65625 2.375 L 43.609375 2.375 C 41.953125 3.664062 39.820312 4.859375 37.21875 5.953125 C 34.613281 7.046875 31.5 7.59375 27.875 7.59375 Z M 27.875 7.59375 "/></g></g></g><g fill="#3c2a14" fill-opacity="1"><g transform="translate(357.215844, 354.017125)"><g/></g></g><g fill="#3c2a14" fill-opacity="1"><g transform="translate(387.575865, 354.017125)"><g><path d="M 0.796875 -60.15625 L 21.1875 -60.15625 L 32.515625 -22.09375 L 43.15625 -60.15625 L 58.90625 -60.15625 L 68.875 -22.09375 L 80.4375 -60.15625 L 100.484375 -60.15625 L 82.125 0.234375 L 58.6875 0.234375 L 50.75 -28.546875 L 43.046875 0.234375 L 19.375 0.234375 Z M 64.90625 6.453125 L 63.78125 2.609375 L 83.828125 2.609375 L 101.046875 -53.921875 L 106.71875 -53.921875 L 88.359375 6.453125 Z M 25.609375 6.453125 L 24.359375 2.609375 L 44.859375 2.609375 L 50.75 -19.375 L 53.46875 -9.40625 L 49.28125 6.453125 Z M 62.984375 -53.921875 L 65.140625 -53.921875 L 70.125 -34.671875 L 68.984375 -30.8125 Z M 25.609375 -53.921875 L 27.421875 -53.921875 L 33.3125 -33.875 L 32.515625 -30.8125 Z M 25.609375 -53.921875 "/></g></g></g><g fill="#3c2a14" fill-opacity="1"><g transform="translate(486.019552, 354.017125)"><g><path d="M 33.875 -61.515625 C 40.289062 -61.515625 45.929688 -60.625 50.796875 -58.84375 C 55.671875 -57.070312 59.488281 -54.035156 62.25 -49.734375 C 65.007812 -45.429688 66.390625 -39.460938 66.390625 -31.828125 L 66.390625 0 L 43.84375 0 L 43.15625 -4.875 C 43.15625 -4.875 42.457031 -4.363281 41.0625 -3.34375 C 39.664062 -2.320312 37.644531 -1.28125 35 -0.21875 C 32.363281 0.832031 29.082031 1.359375 25.15625 1.359375 C 20.769531 1.359375 16.820312 0.507812 13.3125 -1.1875 C 9.800781 -2.882812 7.046875 -5.265625 5.046875 -8.328125 C 3.046875 -11.390625 2.046875 -14.992188 2.046875 -19.140625 C 2.046875 -23.671875 3.175781 -27.445312 5.4375 -30.46875 C 7.707031 -33.488281 10.75 -35.773438 14.5625 -37.328125 C 18.375 -38.878906 22.617188 -39.65625 27.296875 -39.65625 C 30.617188 -39.65625 33.507812 -39.253906 35.96875 -38.453125 C 38.425781 -37.660156 40.351562 -36.867188 41.75 -36.078125 C 43.144531 -35.285156 43.84375 -34.890625 43.84375 -34.890625 L 43.84375 -38.0625 C 43.84375 -40.550781 42.554688 -42.53125 39.984375 -44 C 37.421875 -45.476562 34.140625 -46.21875 30.140625 -46.21875 C 26.429688 -46.21875 23.179688 -45.878906 20.390625 -45.203125 C 17.597656 -44.523438 15.425781 -43.828125 13.875 -43.109375 C 12.332031 -42.390625 11.5625 -42.03125 11.5625 -42.03125 L 5.78125 -56.1875 C 5.78125 -56.1875 6.945312 -56.640625 9.28125 -57.546875 C 11.625 -58.453125 14.910156 -59.335938 19.140625 -60.203125 C 23.367188 -61.078125 28.28125 -61.515625 33.875 -61.515625 Z M 50.078125 6.234375 L 49.5 2.375 L 68.765625 2.375 L 68.765625 -31.828125 C 68.765625 -37.265625 68.082031 -41.910156 66.71875 -45.765625 C 68.613281 -43.503906 70.066406 -40.710938 71.078125 -37.390625 C 72.097656 -34.066406 72.609375 -30.140625 72.609375 -25.609375 L 72.609375 6.234375 Z M 43.84375 -19.140625 C 43.84375 -21.554688 42.914062 -23.484375 41.0625 -24.921875 C 39.21875 -26.359375 36.9375 -27.078125 34.21875 -27.078125 C 31.195312 -27.078125 28.78125 -26.359375 26.96875 -24.921875 C 25.15625 -23.484375 24.25 -21.554688 24.25 -19.140625 C 24.25 -16.804688 25.265625 -15.070312 27.296875 -13.9375 C 29.335938 -12.800781 31.644531 -12.234375 34.21875 -12.234375 C 36.707031 -12.234375 38.929688 -12.816406 40.890625 -13.984375 C 42.859375 -15.160156 43.84375 -16.878906 43.84375 -19.140625 Z M 31.375 7.59375 C 28.132812 7.59375 25.113281 7.097656 22.3125 6.109375 C 19.519531 5.128906 17.066406 3.773438 14.953125 2.046875 C 18.046875 3.171875 21.445312 3.734375 25.15625 3.734375 C 29.226562 3.734375 32.546875 3.257812 35.109375 2.3125 C 37.679688 1.375 39.722656 0.414062 41.234375 -0.5625 L 41.46875 2.375 L 48.140625 2.375 C 47.015625 3.207031 45.050781 4.285156 42.25 5.609375 C 39.457031 6.929688 35.832031 7.59375 31.375 7.59375 Z M 40.4375 -20.84375 C 37.875 -20.84375 35.742188 -20.3125 34.046875 -19.25 C 32.347656 -18.195312 31.234375 -16.800781 30.703125 -15.0625 C 29.492188 -15.363281 28.507812 -15.835938 27.75 -16.484375 C 27 -17.128906 26.625 -18.015625 26.625 -19.140625 C 26.625 -20.878906 27.300781 -22.238281 28.65625 -23.21875 C 30.019531 -24.207031 31.875 -24.703125 34.21875 -24.703125 C 35.875 -24.703125 37.320312 -24.359375 38.5625 -23.671875 C 39.8125 -22.992188 40.664062 -22.050781 41.125 -20.84375 Z M 41.125 -39.53125 C 40.820312 -39.613281 40.5 -39.671875 40.15625 -39.703125 C 39.820312 -39.742188 39.460938 -39.765625 39.078125 -39.765625 C 37.566406 -40.367188 35.8125 -40.894531 33.8125 -41.34375 C 31.8125 -41.800781 29.640625 -42.03125 27.296875 -42.03125 C 23.222656 -42.03125 19.410156 -41.460938 15.859375 -40.328125 L 15.640625 -41.015625 C 17.367188 -41.691406 19.5 -42.332031 22.03125 -42.9375 C 24.5625 -43.539062 27.265625 -43.84375 30.140625 -43.84375 C 32.929688 -43.84375 35.304688 -43.460938 37.265625 -42.703125 C 39.234375 -41.953125 40.519531 -40.894531 41.125 -39.53125 Z M 41.125 -39.53125 "/></g></g></g><g fill="#3c2a14" fill-opacity="1"><g transform="translate(557.954883, 354.017125)"><g><path d="M 4.875 0 L 4.875 -60.15625 L 26.734375 -60.15625 L 27.421875 -52 C 28.703125 -53.4375 30.265625 -54.867188 32.109375 -56.296875 C 33.960938 -57.734375 36.171875 -58.960938 38.734375 -59.984375 C 41.304688 -61.003906 44.21875 -61.515625 47.46875 -61.515625 C 53.132812 -61.515625 57.285156 -59.925781 59.921875 -56.75 C 62.566406 -53.582031 63.890625 -49.582031 63.890625 -44.75 L 63.890625 0 L 41.125 0 L 41.125 -32.734375 C 41.125 -34.097656 41.007812 -35.570312 40.78125 -37.15625 C 40.550781 -38.738281 39.960938 -40.078125 39.015625 -41.171875 C 38.078125 -42.273438 36.515625 -42.828125 34.328125 -42.828125 C 32.285156 -42.828125 30.773438 -42.296875 29.796875 -41.234375 C 28.816406 -40.179688 28.175781 -38.898438 27.875 -37.390625 C 27.570312 -35.878906 27.421875 -34.40625 27.421875 -32.96875 L 27.421875 0 Z M 70.125 6.234375 L 47.359375 6.234375 L 47.359375 2.375 L 66.265625 2.375 L 66.265625 -44.75 C 66.265625 -45.882812 66.1875 -47 66.03125 -48.09375 C 65.882812 -49.1875 65.703125 -50.222656 65.484375 -51.203125 C 67.066406 -49.691406 68.234375 -47.859375 68.984375 -45.703125 C 69.742188 -43.554688 70.125 -41.160156 70.125 -38.515625 Z M 11.109375 6.234375 L 11.109375 2.375 L 29.796875 2.375 L 29.796875 -32.96875 C 29.796875 -34.625 30.039062 -36.28125 30.53125 -37.9375 C 31.019531 -39.601562 32.285156 -40.4375 34.328125 -40.4375 C 35.679688 -40.4375 36.660156 -40.019531 37.265625 -39.1875 C 37.867188 -38.363281 38.285156 -37.421875 38.515625 -36.359375 C 36.328125 -35.835938 34.96875 -34.570312 34.4375 -32.5625 C 33.90625 -30.5625 33.640625 -28.617188 33.640625 -26.734375 L 33.640625 6.234375 Z M 11.109375 6.234375 "/></g></g></g><g fill="#3c2a14" fill-opacity="1"><g transform="translate(626.718272, 354.017125)"><g><path d="M 42.25 0 L 27.75 0 C 23.90625 0 20.773438 -0.488281 18.359375 -1.46875 C 15.941406 -2.457031 14.050781 -3.664062 12.6875 -5.09375 C 11.332031 -6.53125 10.351562 -7.96875 9.75 -9.40625 C 9.144531 -10.84375 8.785156 -12.050781 8.671875 -13.03125 C 8.554688 -14.007812 8.5 -14.5 8.5 -14.5 L 8.5 -42.140625 L 3.171875 -42.140625 L 3.171875 -60.15625 L 8.5 -60.15625 L 8.5 -78.953125 L 31.15625 -78.953125 L 31.15625 -60.15625 L 42.25 -60.15625 L 42.25 -42.140625 L 31.15625 -42.140625 L 31.15625 -24.015625 C 31.15625 -22.429688 31.457031 -21.164062 32.0625 -20.21875 C 32.664062 -19.28125 33.910156 -18.8125 35.796875 -18.8125 L 42.25 -18.8125 Z M 37.390625 -35.90625 L 37.390625 -21.1875 L 35.796875 -21.1875 C 34.816406 -21.1875 34.191406 -21.445312 33.921875 -21.96875 C 33.660156 -22.5 33.53125 -23.179688 33.53125 -24.015625 L 33.53125 -39.765625 L 44.640625 -39.765625 L 44.640625 -53.921875 L 48.484375 -53.921875 L 48.484375 -35.90625 Z M 44.640625 2.375 L 44.640625 -12.578125 L 48.484375 -12.578125 L 48.484375 6.234375 L 33.984375 6.234375 C 30.210938 6.234375 27.117188 5.738281 24.703125 4.75 C 22.285156 3.769531 20.359375 2.601562 18.921875 1.25 C 20.203125 1.550781 21.5625 1.8125 23 2.03125 C 24.4375 2.257812 26.019531 2.375 27.75 2.375 Z M 37.390625 -72.734375 L 37.390625 -62.53125 L 33.53125 -62.53125 L 33.53125 -72.734375 Z M 37.390625 -72.734375 "/></g></g></g><g fill="#3c2a14" fill-opacity="1"><g transform="translate(139.366279, 511.214296)"><g><path d="M 66.15625 -31.609375 L 86.78125 -16.875 C 82.851562 -10.914062 77.566406 -6.21875 70.921875 -2.78125 C 64.273438 0.65625 56.910156 2.375 48.828125 2.375 C 42.023438 2.375 35.789062 1.222656 30.125 -1.078125 C 24.46875 -3.378906 19.582031 -6.585938 15.46875 -10.703125 C 11.351562 -14.816406 8.160156 -19.707031 5.890625 -25.375 C 3.628906 -31.039062 2.5 -37.195312 2.5 -43.84375 C 2.5 -50.332031 3.648438 -56.390625 5.953125 -62.015625 C 8.253906 -67.648438 11.476562 -72.5625 15.625 -76.75 C 19.78125 -80.9375 24.691406 -84.203125 30.359375 -86.546875 C 36.023438 -88.890625 42.179688 -90.0625 48.828125 -90.0625 C 56.609375 -90.0625 63.78125 -88.550781 70.34375 -85.53125 C 76.914062 -82.507812 82.28125 -78.203125 86.4375 -72.609375 L 66.953125 -57.4375 C 65.066406 -60.382812 62.441406 -62.554688 59.078125 -63.953125 C 55.710938 -65.347656 52.296875 -66.046875 48.828125 -66.046875 C 44.828125 -66.046875 41.203125 -65.097656 37.953125 -63.203125 C 34.703125 -61.316406 32.113281 -58.710938 30.1875 -55.390625 C 28.257812 -52.066406 27.296875 -48.21875 27.296875 -43.84375 C 27.296875 -39.914062 28.257812 -36.269531 30.1875 -32.90625 C 32.113281 -29.550781 34.71875 -26.851562 38 -24.8125 C 41.289062 -22.769531 44.898438 -21.75 48.828125 -21.75 C 52.378906 -21.75 55.679688 -22.65625 58.734375 -24.46875 C 61.796875 -26.28125 64.269531 -28.660156 66.15625 -31.609375 Z M 55.0625 8.609375 C 49.769531 8.609375 44.820312 7.890625 40.21875 6.453125 C 35.613281 5.023438 31.421875 3.023438 27.640625 0.453125 C 33.984375 3.328125 41.046875 4.765625 48.828125 4.765625 C 56.679688 4.765625 63.988281 3.082031 70.75 -0.28125 C 77.507812 -3.644531 83.191406 -8.3125 87.796875 -14.28125 L 93 -10.65625 C 89.070312 -4.6875 83.785156 0.015625 77.140625 3.453125 C 70.492188 6.890625 63.132812 8.609375 55.0625 8.609375 Z M 33.53125 -37.609375 C 33.53125 -35.191406 33.867188 -32.890625 34.546875 -30.703125 C 33.035156 -32.441406 31.847656 -34.441406 30.984375 -36.703125 C 30.117188 -38.972656 29.6875 -41.351562 29.6875 -43.84375 C 29.6875 -47.769531 30.535156 -51.222656 32.234375 -54.203125 C 33.929688 -57.191406 36.234375 -59.515625 39.140625 -61.171875 C 42.046875 -62.835938 45.273438 -63.671875 48.828125 -63.671875 C 51.015625 -63.671875 53.257812 -63.269531 55.5625 -62.46875 C 57.863281 -61.675781 60 -60.488281 61.96875 -58.90625 C 59.550781 -59.507812 57.25 -59.8125 55.0625 -59.8125 C 51.050781 -59.8125 47.421875 -58.867188 44.171875 -56.984375 C 40.929688 -55.097656 38.347656 -52.492188 36.421875 -49.171875 C 34.492188 -45.847656 33.53125 -41.992188 33.53125 -37.609375 Z M 73.1875 -51.203125 C 72.65625 -52.109375 71.992188 -52.9375 71.203125 -53.6875 C 70.410156 -54.445312 69.597656 -55.128906 68.765625 -55.734375 L 88.46875 -71.140625 C 89.90625 -69.785156 91.304688 -68.203125 92.671875 -66.390625 Z M 73.1875 -51.203125 "/></g></g></g><g fill="#3c2a14" fill-opacity="1"><g transform="translate(228.747329, 511.214296)"><g><path d="M 35.90625 1.359375 C 29.1875 1.359375 23.375 -0.0546875 18.46875 -2.890625 C 13.5625 -5.722656 9.785156 -9.515625 7.140625 -14.265625 C 4.492188 -19.023438 3.171875 -24.273438 3.171875 -30.015625 C 3.171875 -35.835938 4.507812 -41.125 7.1875 -45.875 C 9.875 -50.632812 13.671875 -54.429688 18.578125 -57.265625 C 23.484375 -60.097656 29.257812 -61.515625 35.90625 -61.515625 C 42.550781 -61.515625 48.328125 -60.078125 53.234375 -57.203125 C 58.148438 -54.335938 61.96875 -50.523438 64.6875 -45.765625 C 67.40625 -41.003906 68.765625 -35.753906 68.765625 -30.015625 C 68.765625 -24.359375 67.441406 -19.148438 64.796875 -14.390625 C 62.148438 -9.628906 58.390625 -5.8125 53.515625 -2.9375 C 48.648438 -0.0703125 42.78125 1.359375 35.90625 1.359375 Z M 47.015625 -30.015625 C 47.015625 -32.960938 45.957031 -35.550781 43.84375 -37.78125 C 41.726562 -40.007812 39.082031 -41.125 35.90625 -41.125 C 32.882812 -41.125 30.296875 -40.023438 28.140625 -37.828125 C 25.992188 -35.640625 24.921875 -33.035156 24.921875 -30.015625 C 24.921875 -27.078125 25.992188 -24.507812 28.140625 -22.3125 C 30.296875 -20.125 32.882812 -19.03125 35.90625 -19.03125 C 39.007812 -19.03125 41.632812 -20.125 43.78125 -22.3125 C 45.9375 -24.507812 47.015625 -27.078125 47.015625 -30.015625 Z M 35.90625 3.734375 C 43.238281 3.734375 49.523438 2.1875 54.765625 -0.90625 C 60.015625 -4 64.054688 -8.113281 66.890625 -13.25 C 69.722656 -18.382812 71.140625 -23.972656 71.140625 -30.015625 C 71.140625 -34.628906 70.347656 -38.898438 68.765625 -42.828125 C 70.722656 -40.179688 72.25 -37.234375 73.34375 -33.984375 C 74.445312 -30.734375 75 -27.335938 75 -23.796875 C 75 -18.128906 73.675781 -12.914062 71.03125 -8.15625 C 68.382812 -3.394531 64.625 0.414062 59.75 3.28125 C 54.882812 6.15625 49.015625 7.59375 42.140625 7.59375 C 37.984375 7.59375 34.128906 7.003906 30.578125 5.828125 C 27.035156 4.660156 23.941406 3.054688 21.296875 1.015625 C 23.484375 1.847656 25.785156 2.507812 28.203125 3 C 30.617188 3.488281 33.1875 3.734375 35.90625 3.734375 Z M 31.15625 -23.796875 L 31.15625 -22.765625 C 30.019531 -23.597656 29.09375 -24.65625 28.375 -25.9375 C 27.65625 -27.226562 27.296875 -28.585938 27.296875 -30.015625 C 27.296875 -32.429688 28.144531 -34.488281 29.84375 -36.1875 C 31.550781 -37.894531 33.570312 -38.75 35.90625 -38.75 C 37.414062 -38.75 38.8125 -38.390625 40.09375 -37.671875 C 41.382812 -36.953125 42.40625 -35.988281 43.15625 -34.78125 C 42.9375 -34.851562 42.597656 -34.890625 42.140625 -34.890625 C 39.117188 -34.890625 36.53125 -33.796875 34.375 -31.609375 C 32.226562 -29.421875 31.15625 -26.816406 31.15625 -23.796875 Z M 31.15625 -23.796875 "/></g></g></g><g fill="#3c2a14" fill-opacity="1"><g transform="translate(301.02252, 511.214296)"><g><path d="M 35.90625 1.359375 C 29.1875 1.359375 23.375 -0.0546875 18.46875 -2.890625 C 13.5625 -5.722656 9.785156 -9.515625 7.140625 -14.265625 C 4.492188 -19.023438 3.171875 -24.273438 3.171875 -30.015625 C 3.171875 -35.835938 4.507812 -41.125 7.1875 -45.875 C 9.875 -50.632812 13.671875 -54.429688 18.578125 -57.265625 C 23.484375 -60.097656 29.257812 -61.515625 35.90625 -61.515625 C 42.550781 -61.515625 48.328125 -60.078125 53.234375 -57.203125 C 58.148438 -54.335938 61.96875 -50.523438 64.6875 -45.765625 C 67.40625 -41.003906 68.765625 -35.753906 68.765625 -30.015625 C 68.765625 -24.359375 67.441406 -19.148438 64.796875 -14.390625 C 62.148438 -9.628906 58.390625 -5.8125 53.515625 -2.9375 C 48.648438 -0.0703125 42.78125 1.359375 35.90625 1.359375 Z M 47.015625 -30.015625 C 47.015625 -32.960938 45.957031 -35.550781 43.84375 -37.78125 C 41.726562 -40.007812 39.082031 -41.125 35.90625 -41.125 C 32.882812 -41.125 30.296875 -40.023438 28.140625 -37.828125 C 25.992188 -35.640625 24.921875 -33.035156 24.921875 -30.015625 C 24.921875 -27.078125 25.992188 -24.507812 28.140625 -22.3125 C 30.296875 -20.125 32.882812 -19.03125 35.90625 -19.03125 C 39.007812 -19.03125 41.632812 -20.125 43.78125 -22.3125 C 45.9375 -24.507812 47.015625 -27.078125 47.015625 -30.015625 Z M 35.90625 3.734375 C 43.238281 3.734375 49.523438 2.1875 54.765625 -0.90625 C 60.015625 -4 64.054688 -8.113281 66.890625 -13.25 C 69.722656 -18.382812 71.140625 -23.972656 71.140625 -30.015625 C 71.140625 -34.628906 70.347656 -38.898438 68.765625 -42.828125 C 70.722656 -40.179688 72.25 -37.234375 73.34375 -33.984375 C 74.445312 -30.734375 75 -27.335938 75 -23.796875 C 75 -18.128906 73.675781 -12.914062 71.03125 -8.15625 C 68.382812 -3.394531 64.625 0.414062 59.75 3.28125 C 54.882812 6.15625 49.015625 7.59375 42.140625 7.59375 C 37.984375 7.59375 34.128906 7.003906 30.578125 5.828125 C 27.035156 4.660156 23.941406 3.054688 21.296875 1.015625 C 23.484375 1.847656 25.785156 2.507812 28.203125 3 C 30.617188 3.488281 33.1875 3.734375 35.90625 3.734375 Z M 31.15625 -23.796875 L 31.15625 -22.765625 C 30.019531 -23.597656 29.09375 -24.65625 28.375 -25.9375 C 27.65625 -27.226562 27.296875 -28.585938 27.296875 -30.015625 C 27.296875 -32.429688 28.144531 -34.488281 29.84375 -36.1875 C 31.550781 -37.894531 33.570312 -38.75 35.90625 -38.75 C 37.414062 -38.75 38.8125 -38.390625 40.09375 -37.671875 C 41.382812 -36.953125 42.40625 -35.988281 43.15625 -34.78125 C 42.9375 -34.851562 42.597656 -34.890625 42.140625 -34.890625 C 39.117188 -34.890625 36.53125 -33.796875 34.375 -31.609375 C 32.226562 -29.421875 31.15625 -26.816406 31.15625 -23.796875 Z M 31.15625 -23.796875 "/></g></g></g><g fill="#3c2a14" fill-opacity="1"><g transform="translate(373.297711, 511.214296)"><g><path d="M 27.75 0 L 5.21875 0 L 5.21875 -87.6875 L 27.75 -87.6875 L 27.75 -44.296875 L 42.140625 -60.15625 L 67.0625 -60.15625 L 42.9375 -33.765625 L 69.78125 0 L 43.734375 0 L 27.75 -22.65625 Z M 50.078125 -28.546875 L 46 -33.640625 L 64.453125 -53.921875 L 73.296875 -53.921875 Z M 11.4375 6.234375 L 11.4375 2.375 L 30.140625 2.375 L 30.140625 -15.1875 L 33.984375 -9.625 L 33.984375 6.234375 Z M 30.140625 -50.40625 L 30.140625 -81.453125 L 33.984375 -81.453125 L 33.984375 -54.609375 Z M 47.234375 2.375 L 71.59375 2.375 L 72.046875 1.25 L 76.015625 6.234375 L 49.953125 6.234375 Z M 47.234375 2.375 "/></g></g></g><g fill="#3c2a14" fill-opacity="1"><g transform="translate(446.819028, 511.214296)"><g><path d="M 4.875 0 L 4.875 -60.15625 L 27.421875 -60.15625 L 27.421875 0 Z M 27.421875 -68.203125 L 4.875 -68.203125 L 4.875 -87.6875 L 27.421875 -87.6875 Z M 11.109375 6.234375 L 11.109375 2.375 L 29.796875 2.375 L 29.796875 -53.921875 L 33.640625 -53.921875 L 33.640625 6.234375 Z M 29.796875 -65.8125 L 29.796875 -81.453125 L 33.640625 -81.453125 L 33.640625 -61.96875 L 29.796875 -61.96875 L 29.796875 -62.53125 L 11.109375 -62.53125 L 11.109375 -65.8125 Z M 29.796875 -65.8125 "/></g></g></g><g fill="#3c2a14" fill-opacity="1"><g transform="translate(479.444822, 511.214296)"><g><path d="M 47.8125 -22.4375 L 63.890625 -13.03125 C 63.890625 -13.03125 63.398438 -12.3125 62.421875 -10.875 C 61.441406 -9.4375 59.835938 -7.753906 57.609375 -5.828125 C 55.378906 -3.910156 52.410156 -2.234375 48.703125 -0.796875 C 45.003906 0.640625 40.4375 1.359375 35 1.359375 C 28.28125 1.359375 22.519531 0 17.71875 -2.71875 C 12.925781 -5.4375 9.265625 -9.15625 6.734375 -13.875 C 4.210938 -18.59375 2.953125 -23.972656 2.953125 -30.015625 C 2.953125 -36.054688 4.269531 -41.457031 6.90625 -46.21875 C 9.550781 -50.976562 13.269531 -54.71875 18.0625 -57.4375 C 22.863281 -60.15625 28.472656 -61.515625 34.890625 -61.515625 C 41.234375 -61.515625 46.726562 -60.191406 51.375 -57.546875 C 56.019531 -54.898438 59.625 -51.179688 62.1875 -46.390625 C 64.757812 -41.597656 66.046875 -35.878906 66.046875 -29.234375 C 66.046875 -28.628906 65.953125 -28.003906 65.765625 -27.359375 C 65.578125 -26.710938 65.484375 -26.390625 65.484375 -26.390625 L 24.578125 -26.390625 C 24.578125 -25.410156 24.953125 -24.128906 25.703125 -22.546875 C 26.460938 -20.960938 27.710938 -19.566406 29.453125 -18.359375 C 31.191406 -17.148438 33.535156 -16.546875 36.484375 -16.546875 C 39.203125 -16.546875 41.390625 -17.035156 43.046875 -18.015625 C 44.710938 -18.992188 45.921875 -19.972656 46.671875 -20.953125 C 47.429688 -21.941406 47.8125 -22.4375 47.8125 -22.4375 Z M 41.234375 7.59375 C 36.929688 7.59375 33.023438 7.023438 29.515625 5.890625 C 26.003906 4.753906 22.925781 3.171875 20.28125 1.140625 C 24.65625 2.867188 29.5625 3.734375 35 3.734375 C 40.4375 3.734375 45.097656 2.941406 48.984375 1.359375 C 52.878906 -0.222656 56.09375 -2.09375 58.625 -4.25 C 61.15625 -6.40625 63.097656 -8.347656 64.453125 -10.078125 L 70.125 -6.796875 C 70.125 -6.796875 69.628906 -6.078125 68.640625 -4.640625 C 67.660156 -3.210938 66.054688 -1.535156 63.828125 0.390625 C 61.609375 2.316406 58.644531 4 54.9375 5.4375 C 51.238281 6.875 46.671875 7.59375 41.234375 7.59375 Z M 35 -44.75 C 32.507812 -44.75 30.507812 -44.253906 29 -43.265625 C 27.488281 -42.285156 26.375 -41.0625 25.65625 -39.59375 C 24.9375 -38.125 24.578125 -36.632812 24.578125 -35.125 L 44.40625 -35.125 C 44.40625 -36.632812 44.101562 -38.125 43.5 -39.59375 C 42.894531 -41.0625 41.910156 -42.285156 40.546875 -43.265625 C 39.191406 -44.253906 37.34375 -44.75 35 -44.75 Z M 67.171875 -24.015625 C 67.171875 -24.015625 67.378906 -24.675781 67.796875 -26 C 68.210938 -27.320312 68.421875 -28.398438 68.421875 -29.234375 C 68.421875 -34.671875 67.550781 -39.65625 65.8125 -44.1875 C 67.851562 -41.46875 69.441406 -38.332031 70.578125 -34.78125 C 71.710938 -31.226562 72.28125 -27.300781 72.28125 -23 C 72.28125 -22.394531 72.179688 -21.769531 71.984375 -21.125 C 71.796875 -20.488281 71.703125 -20.171875 71.703125 -20.171875 L 56.296875 -20.171875 L 49.84375 -24.015625 Z M 45.765625 -24.015625 C 45.316406 -23.410156 44.710938 -22.75 43.953125 -22.03125 C 43.203125 -21.3125 42.332031 -20.691406 41.34375 -20.171875 L 31.046875 -20.171875 C 30.140625 -20.691406 29.398438 -21.289062 28.828125 -21.96875 C 28.265625 -22.65625 27.832031 -23.335938 27.53125 -24.015625 Z M 41.234375 -38.515625 C 40.253906 -38.515625 39.328125 -38.421875 38.453125 -38.234375 C 37.585938 -38.046875 36.816406 -37.800781 36.140625 -37.5 L 27.296875 -37.5 C 27.679688 -38.78125 28.492188 -39.910156 29.734375 -40.890625 C 30.984375 -41.878906 32.738281 -42.375 35 -42.375 C 36.738281 -42.375 38.117188 -41.992188 39.140625 -41.234375 C 40.160156 -40.484375 40.859375 -39.578125 41.234375 -38.515625 Z M 41.234375 -38.515625 "/></g></g></g><g fill="#3c2a14" fill-opacity="1"><g transform="translate(548.774648, 511.214296)"><g><path d="M 29.90625 -16.546875 C 27.414062 -17.148438 25.070312 -17.921875 22.875 -18.859375 C 20.6875 -19.804688 18.726562 -20.957031 17 -22.3125 C 19.71875 -21.257812 22.585938 -20.46875 25.609375 -19.9375 C 28.328125 -19.632812 30.269531 -19.296875 31.4375 -18.921875 C 32.601562 -18.546875 33.300781 -18.222656 33.53125 -17.953125 C 33.757812 -17.691406 33.875 -17.523438 33.875 -17.453125 C 33.875 -17.148438 33.476562 -16.921875 32.6875 -16.765625 C 31.894531 -16.617188 30.96875 -16.546875 29.90625 -16.546875 Z M 49.734375 -36.9375 L 46.671875 -37.953125 C 45.160156 -38.554688 43.613281 -39.046875 42.03125 -39.421875 C 40.445312 -39.796875 38.859375 -40.132812 37.265625 -40.4375 C 34.398438 -40.894531 32.304688 -41.40625 30.984375 -41.96875 C 29.660156 -42.539062 29 -43.085938 29 -43.609375 L 30.8125 -43.609375 C 32.78125 -43.609375 35.554688 -43.097656 39.140625 -42.078125 C 42.722656 -41.066406 46.253906 -39.351562 49.734375 -36.9375 Z M 55.84375 -33.640625 C 55.019531 -34.242188 54.15625 -34.789062 53.25 -35.28125 C 52.34375 -35.78125 51.472656 -36.253906 50.640625 -36.703125 L 58.234375 -50.75 C 59.890625 -50 61.1875 -49.359375 62.125 -48.828125 C 63.070312 -48.296875 63.546875 -48.03125 63.546875 -48.03125 Z M 31.953125 3.859375 C 40.929688 3.859375 48.007812 1.800781 53.1875 -2.3125 C 58.363281 -6.4375 60.953125 -11.972656 60.953125 -18.921875 C 60.953125 -20.960938 60.722656 -22.773438 60.265625 -24.359375 C 61.628906 -22.921875 62.722656 -21.257812 63.546875 -19.375 C 64.378906 -17.488281 64.796875 -15.257812 64.796875 -12.6875 C 64.796875 -6.5 62.414062 -1.554688 57.65625 2.140625 C 52.90625 5.847656 46.410156 7.703125 38.171875 7.703125 C 32.359375 7.703125 27.222656 7.078125 22.765625 5.828125 C 18.316406 4.585938 13.9375 2.457031 9.625 -0.5625 C 13.101562 1.019531 16.632812 2.148438 20.21875 2.828125 C 23.8125 3.515625 27.722656 3.859375 31.953125 3.859375 Z M 31.953125 1.46875 C 25.679688 1.46875 20.164062 0.734375 15.40625 -0.734375 C 10.644531 -2.210938 5.925781 -4.800781 1.25 -8.5 L 9.75 -22.4375 C 13.289062 -20.09375 16.835938 -18.125 20.390625 -16.53125 C 23.941406 -14.945312 27.148438 -14.15625 30.015625 -14.15625 C 31.609375 -14.15625 33.046875 -14.421875 34.328125 -14.953125 C 35.609375 -15.484375 36.25 -16.238281 36.25 -17.21875 C 36.25 -17.375 36.078125 -17.789062 35.734375 -18.46875 C 35.398438 -19.144531 34.515625 -19.878906 33.078125 -20.671875 C 31.640625 -21.460938 29.257812 -22.007812 25.9375 -22.3125 C 21.9375 -23.070312 18.273438 -24.28125 14.953125 -25.9375 C 11.628906 -27.601562 9.003906 -29.773438 7.078125 -32.453125 C 5.148438 -35.140625 4.1875 -38.367188 4.1875 -42.140625 C 4.1875 -46.441406 5.359375 -50.046875 7.703125 -52.953125 C 10.046875 -55.867188 13.179688 -58.0625 17.109375 -59.53125 C 21.035156 -61 25.378906 -61.734375 30.140625 -61.734375 C 34.066406 -61.734375 37.691406 -61.351562 41.015625 -60.59375 C 44.335938 -59.84375 47.207031 -58.976562 49.625 -58 C 52.039062 -57.019531 53.925781 -56.148438 55.28125 -55.390625 C 56.644531 -54.640625 57.328125 -54.265625 57.328125 -54.265625 L 49.625 -39.875 C 46.519531 -42.0625 43.15625 -43.628906 39.53125 -44.578125 C 35.90625 -45.523438 33 -46 30.8125 -46 C 29.375 -46 28.316406 -45.75 27.640625 -45.25 C 26.960938 -44.757812 26.625 -44.210938 26.625 -43.609375 C 26.625 -42.484375 27.4375 -41.425781 29.0625 -40.4375 C 30.6875 -39.457031 33.3125 -38.664062 36.9375 -38.0625 C 40.476562 -37.53125 43.910156 -36.566406 47.234375 -35.171875 C 50.554688 -33.773438 53.273438 -31.773438 55.390625 -29.171875 C 57.503906 -26.566406 58.5625 -23.148438 58.5625 -18.921875 C 58.5625 -12.722656 56.179688 -7.773438 51.421875 -4.078125 C 46.671875 -0.378906 40.179688 1.46875 31.953125 1.46875 Z M 31.953125 1.46875 "/></g></g></g><g fill="#3c2a14" fill-opacity="1"><g transform="translate(605.416485, 511.214296)"><g><path d="M 22.09375 -61.515625 L 0.453125 -61.515625 C 0.453125 -64.835938 1.054688 -68.175781 2.265625 -71.53125 C 3.472656 -74.894531 5.320312 -77.972656 7.8125 -80.765625 C 10.3125 -83.566406 13.484375 -85.816406 17.328125 -87.515625 C 21.179688 -89.210938 25.753906 -90.0625 31.046875 -90.0625 C 36.929688 -90.0625 42.234375 -88.925781 46.953125 -86.65625 C 51.671875 -84.394531 55.390625 -81.128906 58.109375 -76.859375 C 60.828125 -72.597656 62.1875 -67.484375 62.1875 -61.515625 C 62.1875 -57.128906 61.488281 -53.390625 60.09375 -50.296875 C 58.695312 -47.203125 56.90625 -44.65625 54.71875 -42.65625 C 52.53125 -40.65625 50.1875 -39.144531 47.6875 -38.125 C 45.195312 -37.101562 42.859375 -36.441406 40.671875 -36.140625 L 38.296875 -30.140625 L 18.921875 -30.140625 L 18.921875 -50.078125 L 21.296875 -52.109375 C 26.429688 -52.109375 30.71875 -52.863281 34.15625 -54.375 C 37.59375 -55.882812 39.3125 -58.488281 39.3125 -62.1875 C 39.3125 -64.601562 38.554688 -66.660156 37.046875 -68.359375 C 35.535156 -70.066406 33.457031 -70.921875 30.8125 -70.921875 C 28.695312 -70.921875 27.015625 -70.351562 25.765625 -69.21875 C 24.523438 -68.082031 23.617188 -66.773438 23.046875 -65.296875 C 22.484375 -63.828125 22.164062 -62.566406 22.09375 -61.515625 Z M 29 3.859375 C 26.65625 3.859375 24.5 3.269531 22.53125 2.09375 C 20.570312 0.925781 19.007812 -0.632812 17.84375 -2.59375 C 16.675781 -4.5625 16.09375 -6.71875 16.09375 -9.0625 C 16.09375 -11.476562 16.675781 -13.648438 17.84375 -15.578125 C 19.007812 -17.503906 20.570312 -19.050781 22.53125 -20.21875 C 24.5 -21.394531 26.65625 -21.984375 29 -21.984375 C 32.550781 -21.984375 35.570312 -20.71875 38.0625 -18.1875 C 40.550781 -15.65625 41.796875 -12.613281 41.796875 -9.0625 C 41.796875 -5.507812 40.550781 -2.46875 38.0625 0.0625 C 35.570312 2.59375 32.550781 3.859375 29 3.859375 Z M 44.515625 -23.90625 L 32.625 -23.90625 C 32.09375 -24.050781 31.503906 -24.160156 30.859375 -24.234375 C 30.222656 -24.316406 29.601562 -24.359375 29 -24.359375 C 28.320312 -24.359375 27.660156 -24.316406 27.015625 -24.234375 C 26.378906 -24.160156 25.757812 -24.050781 25.15625 -23.90625 L 25.15625 -27.75 L 39.875 -27.75 C 40.25 -28.582031 40.644531 -29.582031 41.0625 -30.75 C 41.476562 -31.925781 41.875 -33.003906 42.25 -33.984375 C 44.59375 -34.441406 47.066406 -35.289062 49.671875 -36.53125 C 52.273438 -37.78125 54.707031 -39.476562 56.96875 -41.625 C 59.238281 -43.78125 61.070312 -46.5 62.46875 -49.78125 C 63.875 -53.070312 64.578125 -56.984375 64.578125 -61.515625 C 64.578125 -65.671875 63.929688 -69.484375 62.640625 -72.953125 C 64.453125 -70.609375 65.867188 -67.960938 66.890625 -65.015625 C 67.910156 -62.078125 68.421875 -58.832031 68.421875 -55.28125 C 68.421875 -50.90625 67.722656 -47.164062 66.328125 -44.0625 C 64.929688 -40.96875 63.132812 -38.421875 60.9375 -36.421875 C 58.75 -34.421875 56.410156 -32.910156 53.921875 -31.890625 C 51.429688 -30.867188 49.09375 -30.207031 46.90625 -29.90625 Z M 24.359375 -59.140625 C 24.429688 -60.191406 24.675781 -61.453125 25.09375 -62.921875 C 25.507812 -64.398438 26.171875 -65.703125 27.078125 -66.828125 C 27.984375 -67.960938 29.226562 -68.53125 30.8125 -68.53125 C 32.25 -68.53125 33.457031 -68.171875 34.4375 -67.453125 C 35.414062 -66.742188 36.097656 -65.820312 36.484375 -64.6875 C 34.515625 -64.613281 32.941406 -64.007812 31.765625 -62.875 C 30.597656 -61.738281 29.75 -60.453125 29.21875 -59.015625 C 28.695312 -57.585938 28.398438 -56.34375 28.328125 -55.28125 L 6.6875 -55.28125 L 6.6875 -59.140625 Z M 29 6.234375 C 31.875 6.234375 34.441406 5.550781 36.703125 4.1875 C 38.972656 2.832031 40.785156 0.984375 42.140625 -1.359375 C 43.503906 -3.703125 44.1875 -6.269531 44.1875 -9.0625 C 44.1875 -10.269531 44.070312 -11.363281 43.84375 -12.34375 C 46.632812 -9.78125 48.03125 -6.609375 48.03125 -2.828125 C 48.03125 0.722656 46.785156 3.757812 44.296875 6.28125 C 41.804688 8.8125 38.785156 10.078125 35.234375 10.078125 C 33.347656 10.078125 31.59375 9.695312 29.96875 8.9375 C 28.34375 8.1875 26.925781 7.171875 25.71875 5.890625 C 26.769531 6.117188 27.863281 6.234375 29 6.234375 Z M 29 6.234375 "/></g></g></g></svg>